<svg aria-hidden="true" style="position: absolute; width: 0; height: 0; overflow: hidden;" version="1.1" xmlns="http://www.w3.org/2000/svg" xmlns:xlink="http://www.w3.org/1999/xlink">
<defs>
<symbol id="icon-star-yellow" viewBox="0 0 34 32">
<path fill="#ffd401" style="fill: var(--color2, #ffd401)" d="M17.604 0.547l4.293 10.029 10.895 0.973c0.451 0.038 0.803 0.414 0.803 0.872 0 0.265-0.118 0.503-0.305 0.663l-0.001 0.001-8.247 7.187 2.432 10.658c0.014 0.058 0.022 0.124 0.022 0.193 0 0.415-0.289 0.761-0.677 0.85l-0.006 0.001c-0.055 0.012-0.119 0.019-0.184 0.019-0.181 0-0.35-0.054-0.491-0.147l0.003 0.002-9.36-5.586-9.384 5.613c-0.128 0.079-0.284 0.126-0.451 0.126-0.316 0-0.592-0.168-0.744-0.42l-0.002-0.004c-0.079-0.127-0.126-0.282-0.126-0.447 0-0.072 0.009-0.142 0.026-0.209l-0.001 0.006 2.435-10.658-8.236-7.184c-0.183-0.163-0.298-0.399-0.298-0.662 0-0.219 0.080-0.42 0.211-0.574l-0.001 0.001c0.16-0.163 0.38-0.267 0.625-0.273l0.001-0 10.854-0.973 4.293-10.056c0.141-0.314 0.45-0.528 0.81-0.528s0.669 0.215 0.808 0.523l0.002 0.006z"></path>
</symbol>
<symbol id="icon-star-black" viewBox="0 0 34 32">
<path fill="#000000" style="fill: var(--color2, #000000)" d="M17.604 0.547l4.293 10.029 10.895 0.973c0.451 0.038 0.803 0.414 0.803 0.872 0 0.265-0.118 0.503-0.305 0.663l-0.001 0.001-8.247 7.187 2.432 10.658c0.014 0.058 0.022 0.124 0.022 0.193 0 0.415-0.289 0.761-0.677 0.85l-0.006 0.001c-0.055 0.012-0.119 0.019-0.184 0.019-0.181 0-0.35-0.054-0.491-0.147l0.003 0.002-9.36-5.586-9.384 5.613c-0.128 0.079-0.284 0.126-0.451 0.126-0.316 0-0.592-0.168-0.744-0.42l-0.002-0.004c-0.079-0.127-0.126-0.282-0.126-0.447 0-0.072 0.009-0.142 0.026-0.209l-0.001 0.006 2.435-10.658-8.236-7.184c-0.183-0.163-0.298-0.399-0.298-0.662 0-0.219 0.080-0.42 0.211-0.574l-0.001 0.001c0.16-0.163 0.38-0.267 0.625-0.273l0.001-0 10.854-0.973 4.293-10.056c0.141-0.314 0.45-0.528 0.81-0.528s0.669 0.215 0.808 0.523l0.002 0.006z"></path>
</symbol>
</defs>
</svg>
